<svg width="64" height="64" viewBox="0 0 64 64" fill="none" xmlns="http://www.w3.org/2000/svg" aria-hidden="true">
  <g color="currentColor" stroke="currentColor" stroke-linecap="round" stroke-linejoin="round">
    <path d="M12.3 13.7C19.7 19.3 20.1 27 14.3 31.2C9.8 34.4 11.8 40.6 17.9 40.1C25.5 39.4 31.1 27.8 25.8 21.3" stroke-width="4.6"/>
    <path d="M32.6 18.8C41.5 20.9 49.9 28.4 50.8 37.2C51.5 44.2 47.2 49.5 40.8 49.2C36 48.9 32.6 45.6 33.2 41.9C33.7 38.9 36.7 37.2 39.5 38.3" stroke-width="4.6"/>
    <path d="M44.5 8.7C45.1 12 47.7 14.6 51 15.2C47.7 15.8 45.1 18.4 44.5 21.7C43.9 18.4 41.3 15.8 38 15.2C41.3 14.6 43.9 12 44.5 8.7Z" fill="currentColor" stroke="none"/>
    <path d="M20.7 48.2C21.2 51.1 23.5 53.4 26.4 53.9C23.5 54.4 21.2 56.7 20.7 59.6C20.2 56.7 17.9 54.4 15 53.9C17.9 53.4 20.2 51.1 20.7 48.2Z" fill="currentColor" stroke="none"/>
    <circle cx="53.7" cy="28.3" r="2" fill="currentColor" stroke="none"/>
    <circle cx="31.4" cy="10.1" r="1.8" fill="currentColor" stroke="none"/>
  </g>
</svg>
