<svg width="64" height="64" viewBox="0 0 64 64" fill="none" xmlns="http://www.w3.org/2000/svg" aria-hidden="true">
  <g color="currentColor" stroke="currentColor" stroke-linecap="round" stroke-linejoin="round">
    <path d="M9.8 36.4C17.3 30.5 26.2 31.4 28.9 37.1C31.1 41.7 27.4 47.5 21.8 46.3C15.9 45 17 36.8 24.4 30.5C32.7 23.4 45.6 20.9 53.8 14.6" stroke-width="5.2"/>
    <path d="M37.1 48.8C43.9 49.9 50.5 47.3 52.7 42.9C54.6 39.2 52.9 35.5 49.5 35.2C46.4 34.9 44.6 37.7 45.4 40.2" stroke-width="4.2"/>
    <path d="M14.6 16.4C18.4 20.2 23.1 20.7 26.5 17.1" stroke-width="4"/>
    <path d="M47.8 9.7C48.4 13.1 51.1 15.9 54.5 16.4C51.1 17 48.4 19.7 47.8 23.1C47.2 19.7 44.5 17 41.1 16.4C44.5 15.9 47.2 13.1 47.8 9.7Z" fill="currentColor" stroke="none"/>
    <path d="M13.3 49.8C13.8 52.4 16 54.6 18.6 55.1C16 55.6 13.8 57.8 13.3 60.4C12.8 57.8 10.6 55.6 8 55.1C10.6 54.6 12.8 52.4 13.3 49.8Z" fill="currentColor" stroke="none"/>
    <circle cx="34.5" cy="14.5" r="2.4" fill="currentColor" stroke="none"/>
    <circle cx="56.6" cy="29.7" r="1.8" fill="currentColor" stroke="none"/>
  </g>
</svg>
