<svg width="64" height="64" viewBox="0 0 64 64" fill="none" xmlns="http://www.w3.org/2000/svg">
  <g fill="currentColor">
    <path d="M31.98 4.4C34.05 17.02 46.88 29.83 59.6 32C46.88 34.17 34.05 46.98 31.98 59.6C29.9 46.98 17.08 34.17 4.4 32C17.08 29.83 29.9 17.02 31.98 4.4Z"/>
    <path d="M51.3 7.2C52.16 12.41 57.55 17.74 62.8 18.7C57.55 19.66 52.16 24.99 51.3 30.2C50.44 24.99 45.05 19.66 39.8 18.7C45.05 17.74 50.44 12.41 51.3 7.2Z"/>
    <path d="M12.85 42.7C13.52 46.77 17.63 50.89 21.75 51.65C17.63 52.41 13.52 56.53 12.85 60.6C12.18 56.53 8.07 52.41 4 51.65C8.07 50.89 12.18 46.77 12.85 42.7Z"/>
    <circle cx="11" cy="13" r="3.2"/>
    <circle cx="55" cy="47" r="2.4"/>
  </g>
</svg>
