<svg width="64" height="64" viewBox="0 0 64 64" fill="none" xmlns="http://www.w3.org/2000/svg" aria-hidden="true">
  <g fill="currentColor">
    <path d="M24 7.5C25.25 15.14 32.86 22.75 40.5 24C32.86 25.25 25.25 32.86 24 40.5C22.75 32.86 15.14 25.25 7.5 24C15.14 22.75 22.75 15.14 24 7.5Z"/>
    <path d="M48.8 27.6C49.6 32.48 54.52 37.4 59.4 38.2C54.52 39 49.6 43.92 48.8 48.8C48 43.92 43.08 39 38.2 38.2C43.08 37.4 48 32.48 48.8 27.6Z"/>
    <path d="M17.2 45.2C17.64 47.9 20.3 50.56 23 51C20.3 51.44 17.64 54.1 17.2 56.8C16.76 54.1 14.1 51.44 11.4 51C14.1 50.56 16.76 47.9 17.2 45.2Z"/>
    <circle cx="47" cy="13" r="2.8"/>
    <circle cx="9.5" cy="39.5" r="2.1"/>
  </g>
</svg>
